<svg width="119" height="108" viewBox="0 0 119 108" fill="none" xmlns="http://www.w3.org/2000/svg">
<path d="M79.9837 39.1801C71.6137 39.1801 63.0937 38.8401 55.1237 36.6201C47.3037 34.4501 40.1237 30.2401 33.7237 25.3701C29.5337 22.2001 25.7237 19.6701 20.2837 20.0501C14.9617 20.3381 9.87247 22.3254 5.76368 25.7201C-1.15632 31.7801 -0.116322 43.0101 2.65368 50.8701C6.81368 62.7401 19.4737 71.0101 30.2337 76.3601C42.6637 82.5701 56.3237 86.1801 70.0137 88.2501C82.0137 90.0801 97.4337 91.4001 107.834 83.5701C117.384 76.3601 120.004 59.9201 117.664 48.8201C117.096 45.5409 115.35 42.5821 112.754 40.5001C106.044 35.5901 96.0337 38.8701 88.4937 39.0301C85.6937 39.0901 82.8437 39.1601 79.9837 39.1801Z" fill="#F2F2F2"/>
<path d="M59.9039 107.71C80.1782 107.71 96.6138 106.685 96.6138 105.42C96.6138 104.155 80.1782 103.13 59.9039 103.13C39.6295 103.13 23.1938 104.155 23.1938 105.42C23.1938 106.685 39.6295 107.71 59.9039 107.71Z" fill="#F2F2F2"/>
<path d="M8.10376 17.13L21.1038 16.03C22.7248 15.8881 24.3455 16.3073 25.6944 17.2175C27.0433 18.1277 28.0387 19.4736 28.5138 21.03L40.9738 62.73L38.5338 67.1C37.907 68.226 37.5977 69.5009 37.6386 70.7889C37.6795 72.0769 38.0692 73.3296 38.7662 74.4135C39.4631 75.4974 40.4412 76.3719 41.596 76.9436C42.7509 77.5153 44.0392 77.7629 45.3238 77.66L95.2238 73.42" stroke="#BABABA" stroke-linecap="round" stroke-linejoin="round"/>
<path d="M30.3738 27.36L88.3738 22.44C88.9451 22.391 89.5202 22.4713 90.0563 22.6749C90.5924 22.8786 91.0757 23.2003 91.4705 23.6162C91.8653 24.0321 92.1614 24.5316 92.3368 25.0775C92.5122 25.6235 92.5624 26.2019 92.4838 26.77L88.5538 55.14C88.4344 55.9911 88.0323 56.7774 87.4119 57.3724C86.7916 57.9673 85.9892 58.3363 85.1338 58.42L40.9738 62.73L30.3738 27.36Z" fill="white" stroke="#BABABA" stroke-linecap="round" stroke-linejoin="round"/>
<path d="M50.8738 87.22C53.4751 87.22 55.5838 85.1113 55.5838 82.51C55.5838 79.9088 53.4751 77.8 50.8738 77.8C48.2726 77.8 46.1638 79.9088 46.1638 82.51C46.1638 85.1113 48.2726 87.22 50.8738 87.22Z" fill="white" stroke="#BABABA" stroke-linecap="round" stroke-linejoin="round"/>
<path d="M83.6736 84.44C86.2749 84.44 88.3836 82.3313 88.3836 79.73C88.3836 77.1288 86.2749 75.02 83.6736 75.02C81.0724 75.02 78.9636 77.1288 78.9636 79.73C78.9636 82.3313 81.0724 84.44 83.6736 84.44Z" fill="white" stroke="#BABABA" stroke-linecap="round" stroke-linejoin="round"/>
<path d="M18.3983 14.9041L6.14233 15.944C5.08023 16.0341 4.29229 16.9682 4.38241 18.0303C4.47253 19.0924 5.40659 19.8803 6.46868 19.7902L18.7246 18.7502C19.7867 18.6601 20.5747 17.7261 20.4846 16.664C20.3944 15.6019 19.4604 14.8139 18.3983 14.9041Z" fill="#D2D2D2"/>
<path d="M54.7937 49.27C55.0329 47.4449 55.8887 45.7565 57.2194 44.4847C58.55 43.2129 60.2754 42.4342 62.1094 42.2777C63.9434 42.1213 65.7758 42.5965 67.3026 43.6246C68.8294 44.6527 69.9589 46.1718 70.5037 47.93" stroke="#BABABA" stroke-linecap="round" stroke-linejoin="round"/>
<path d="M70.6337 38.48C71.2522 38.48 71.7537 37.9785 71.7537 37.36C71.7537 36.7414 71.2522 36.24 70.6337 36.24C70.0151 36.24 69.5137 36.7414 69.5137 37.36C69.5137 37.9785 70.0151 38.48 70.6337 38.48Z" fill="#BABABA"/>
<path d="M52.8837 39.98C53.5022 39.98 54.0037 39.4785 54.0037 38.86C54.0037 38.2414 53.5022 37.74 52.8837 37.74C52.2651 37.74 51.7637 38.2414 51.7637 38.86C51.7637 39.4785 52.2651 39.98 52.8837 39.98Z" fill="#BABABA"/>
<path d="M21.3337 81.1199V85.4299" stroke="#BABABA" stroke-linecap="round" stroke-linejoin="round"/>
<path d="M19.1838 83.27H23.4838" stroke="#BABABA" stroke-linecap="round" stroke-linejoin="round"/>
<path d="M90.0437 1V5.3" stroke="#BABABA" stroke-linecap="round" stroke-linejoin="round"/>
<path d="M87.8938 3.15015H92.1938" stroke="#BABABA" stroke-linecap="round" stroke-linejoin="round"/>
<path d="M39.1338 13.8501V18.1501" stroke="#BABABA" stroke-linecap="round" stroke-linejoin="round"/>
<path d="M36.9736 16H41.2836" stroke="#BABABA" stroke-linecap="round" stroke-linejoin="round"/>
<path d="M100.774 29.6599C101.337 29.6599 101.794 29.2032 101.794 28.6399C101.794 28.0765 101.337 27.6199 100.774 27.6199C100.21 27.6199 99.7537 28.0765 99.7537 28.6399C99.7537 29.2032 100.21 29.6599 100.774 29.6599Z" fill="white" stroke="#BABABA" stroke-linecap="round" stroke-linejoin="round"/>
<path d="M62.6538 20.49C63.1951 20.49 63.6338 20.0513 63.6338 19.51C63.6338 18.9688 63.1951 18.53 62.6538 18.53C62.1126 18.53 61.6738 18.9688 61.6738 19.51C61.6738 20.0513 62.1126 20.49 62.6538 20.49Z" fill="#CFCFCF"/>
<path d="M69.2337 91.6101C69.7749 91.6101 70.2137 91.1714 70.2137 90.6301C70.2137 90.0889 69.7749 89.6501 69.2337 89.6501C68.6924 89.6501 68.2537 90.0889 68.2537 90.6301C68.2537 91.1714 68.6924 91.6101 69.2337 91.6101Z" fill="#CFCFCF"/>
</svg>
